<svg viewBox="0 0 28 29" fill="currentColor" xmlns="http://www.w3.org/2000/svg">
    <path fill-rule="evenodd" clip-rule="evenodd" d="M27.5924 26.4934L21.7747 20.3561C22.4066 19.5706 22.9399 18.7212 23.3747 17.8079C23.8096 16.8946 24.1287 15.9184 24.3321 14.8793C24.5356 13.8403 24.606 12.7861 24.5434 11.7168C24.4448 10.0314 24.027 8.43862 23.2901 6.93838C22.5531 5.43815 21.6055 4.16669 20.4474 3.12401C19.2892 2.08134 17.9324 1.27837 16.3771 0.715101C14.8218 0.151834 13.2142 -0.0786793 11.5543 0.02356C9.89446 0.125799 8.3253 0.551984 6.84685 1.30212C5.36839 2.05225 4.11504 3.01599 3.08678 4.19334C2.05852 5.37069 1.26604 6.74932 0.709331 8.32924C0.152625 9.90916 -0.0763905 11.5418 0.0222852 13.2271C0.120961 14.9125 0.538736 16.5053 1.27561 18.0055C2.01249 19.5057 2.96006 20.7772 4.11833 21.8199C5.2766 22.8625 6.63335 23.6655 8.18858 24.2288C9.74381 24.792 11.3514 25.0226 13.0114 24.9203C15.4956 24.7673 17.7272 23.93 19.7061 22.4083L25.5282 28.5526C26.078 29.1329 26.9808 29.1511 27.5524 28.5933C28.1332 28.0268 28.1511 27.0828 27.5924 26.4934ZM16.436 21.0085C15.3094 21.5854 14.1107 21.9129 12.84 21.9912C11.5692 22.0694 10.341 21.8913 9.15524 21.457C7.96951 21.0227 6.93394 20.407 6.04853 19.6099C5.16312 18.8128 4.4371 17.8427 3.87045 16.6995C3.3038 15.5563 2.98272 14.3396 2.90721 13.0494C2.83171 11.7591 3.00858 10.5117 3.43783 9.30721C3.86709 8.10268 4.47473 7.0504 5.26078 6.15038C6.04682 5.25035 7.00317 4.51194 8.12981 3.93514C9.25646 3.35835 10.4551 3.03081 11.7258 2.95255C12.9965 2.87428 14.2247 3.05232 15.4106 3.48669C16.5964 3.92105 17.632 4.53674 18.5173 5.33378C19.4026 6.13081 20.1286 7.10096 20.6953 8.24424C21.262 9.38751 21.5831 10.6042 21.6586 11.8944C21.7341 13.1845 21.5572 14.4319 21.1279 15.6365C20.6986 16.8412 20.091 17.8934 19.305 18.7934C18.519 19.6933 17.5626 20.4317 16.436 21.0085ZM12.5 20C16.6421 20 20 16.6421 20 12.5C20 8.35786 16.6421 5 12.5 5C8.35786 5 5 8.35786 5 12.5C5 16.6421 8.35786 20 12.5 20Z" />
</svg>
